<?xml version="1.0" standalone="no"?>
<!DOCTYPE svg PUBLIC "-//W3C//DTD SVG 20010904//EN"
 "http://www.w3.org/TR/2001/REC-SVG-20010904/DTD/svg10.dtd">
<svg version="1.0" xmlns="http://www.w3.org/2000/svg"
 width="532.000000pt" height="533.000000pt" viewBox="0 0 532.000000 533.000000"
 preserveAspectRatio="xMidYMid meet">

<g transform="translate(0.000000,533.000000) scale(0.100000,-0.100000)"
fill="#000000" stroke="none">
<path d="M1394 5016 c-3 -7 2 -41 10 -74 9 -33 16 -64 16 -70 0 -5 -18 -22
-41 -36 -130 -87 -84 -280 73 -305 194 -32 346 120 247 245 -35 44 -113 88
-176 99 -33 5 -43 11 -43 26 0 10 -12 43 -27 74 -27 54 -48 69 -59 41z m61
-266 c5 -22 1 -28 -30 -43 -46 -22 -55 -21 -50 4 9 45 18 61 38 69 26 9 33 4
42 -30z m156 9 c51 -36 48 -106 -6 -131 -29 -13 -31 -12 -40 25 -6 21 -4 27 8
27 9 0 23 10 31 22 20 29 5 48 -39 48 -25 0 -34 5 -38 21 -5 19 -3 21 24 15
17 -3 44 -15 60 -27z m-120 -131 c6 -24 4 -28 -12 -28 -11 0 -34 7 -52 17
l-32 16 30 13 c41 18 57 14 66 -18z"/>
<path d="M1122 4817 c-15 -18 8 -50 48 -67 27 -11 34 -11 47 2 21 21 3 53 -38
67 -40 14 -44 14 -57 -2z"/>
<path d="M3155 4761 c-101 -46 -138 -160 -100 -308 20 -78 77 -183 133 -245
l24 -26 -28 -29 c-16 -15 -42 -45 -59 -66 l-30 -37 -125 27 c-111 24 -146 27
-315 27 -159 0 -209 -3 -305 -23 -171 -34 -302 -76 -411 -132 -70 -36 -84 -45
-143 -84 -32 -22 -72 -48 -87 -58 -16 -11 -29 -23 -29 -28 0 -5 -4 -9 -10 -9
-5 0 -10 6 -10 14 0 28 -28 40 -66 28 -33 -10 -36 -9 -45 16 -8 20 -7 35 5 60
16 32 15 33 -9 44 -24 11 -36 48 -15 48 5 0 14 9 20 19 13 25 -13 54 -41 46
-14 -5 -20 0 -25 22 -11 50 -14 54 -36 51 -21 -3 -23 -8 -20 -54 2 -45 0 -52
-22 -62 -22 -10 -24 -8 -30 19 -4 20 -11 29 -25 29 -21 0 -31 -18 -31 -56 0
-30 -7 -30 -37 -3 -51 49 -187 27 -229 -36 -22 -34 -20 -67 10 -194 31 -128
62 -168 96 -126 10 12 10 23 -3 58 -8 23 -27 82 -42 131 -29 99 -30 98 39 117
49 13 79 1 106 -43 33 -55 27 -75 -24 -82 -25 -4 -52 -16 -62 -27 -18 -20 -18
-21 0 -34 18 -14 64 -11 97 6 18 9 29 -13 29 -57 0 -35 32 -68 58 -60 19 6 22
15 22 54 0 26 -7 76 -15 111 -14 58 -14 66 0 73 8 5 15 18 15 29 0 12 10 23
26 29 52 20 60 -12 13 -51 -40 -32 -32 -54 16 -45 28 6 34 3 39 -14 3 -11 9
-29 12 -40 4 -15 -2 -22 -28 -33 -44 -19 -75 -54 -61 -68 8 -8 39 -3 110 20
113 36 138 39 108 13 -26 -22 -110 -122 -163 -192 -105 -142 -198 -380 -227
-584 -19 -137 -19 -226 0 -340 14 -87 13 -106 -5 -106 -9 0 -187 -107 -277
-167 -69 -45 -107 -96 -123 -161 -33 -140 58 -328 238 -496 85 -79 169 -109
253 -91 37 8 211 97 282 145 55 37 62 37 84 3 39 -64 161 -159 286 -223 l48
-25 -7 -60 c-3 -33 -12 -122 -18 -197 -6 -75 -14 -140 -18 -143 -4 -4 -19 3
-35 14 -15 12 -52 27 -81 33 -48 12 -54 16 -63 49 -21 70 -105 109 -236 109
-29 0 -43 4 -43 13 0 21 -64 77 -101 87 -48 14 -87 12 -149 -6 -74 -22 -110
-60 -110 -116 0 -37 -5 -47 -33 -69 -50 -40 -72 -136 -72 -314 0 -176 30 -411
60 -481 38 -87 122 -118 310 -117 186 1 352 38 396 89 21 24 39 79 39 115 0
27 3 29 38 29 24 0 51 9 75 26 21 14 40 24 41 22 1 -1 11 -30 21 -63 32 -98
94 -175 170 -211 65 -31 109 -30 173 2 70 35 96 82 96 177 1 63 2 68 21 62 49
-13 270 -35 366 -35 l107 0 6 -42 c10 -58 44 -119 85 -154 32 -26 43 -29 120
-32 85 -3 87 -2 134 33 97 72 121 183 115 531 -3 206 -2 213 17 216 20 4 20
-1 20 -261 0 -192 4 -279 13 -312 31 -105 126 -151 317 -151 168 1 321 34 383
83 38 30 44 42 51 103 6 49 6 49 54 61 27 7 60 21 75 32 75 56 84 298 15 414
-32 56 -88 93 -142 95 -43 2 -53 7 -94 47 -50 50 -106 72 -166 64 -28 -3 -44
2 -70 21 -27 20 -49 26 -107 30 l-74 5 0 66 c0 46 -9 90 -28 146 -28 79 -94
195 -112 195 -5 0 -11 8 -14 18 -3 10 -29 35 -57 56 -27 22 -46 42 -42 46 4 4
26 13 48 20 22 7 45 16 50 20 6 5 33 17 60 27 81 31 164 90 250 177 72 72 155
180 155 200 0 5 8 20 18 34 28 41 70 157 93 257 11 50 22 91 24 93 2 2 12 -16
23 -40 11 -24 31 -56 45 -73 23 -27 31 -30 84 -29 54 0 77 8 137 47 11 6 43
36 72 65 98 101 87 173 -56 360 -34 45 -67 85 -71 88 -5 3 -9 9 -9 14 0 10 32
1 128 -36 73 -29 179 -42 209 -25 62 32 87 220 41 302 -43 77 -124 118 -276
141 -83 12 -209 0 -283 -27 -47 -18 -54 -19 -109 -10 -24 4 -46 0 -71 -13
l-37 -19 -58 79 c-33 43 -68 89 -79 101 -11 13 -34 39 -50 58 -53 60 -236 208
-315 254 -127 73 -254 133 -302 142 -16 3 -28 9 -28 14 0 11 99 109 109 109 4
0 45 -17 92 -37 79 -34 90 -36 194 -37 109 -1 111 -1 157 32 64 44 82 80 75
151 -3 30 -14 66 -24 80 -24 33 -117 81 -158 81 -41 0 -131 -27 -174 -51 -18
-11 -35 -18 -37 -16 -3 2 3 21 12 42 11 28 15 62 12 125 -3 77 -7 91 -38 145
-60 100 -141 140 -215 106z m112 -80 c55 -40 88 -127 80 -210 -5 -65 -81 -235
-101 -228 -19 6 -85 109 -110 172 -51 128 -40 234 28 276 42 25 56 24 103 -10z
m392 -354 c41 -20 66 -72 55 -115 -7 -30 -18 -41 -64 -65 -49 -26 -62 -28
-117 -23 -74 6 -223 61 -223 82 0 8 5 14 10 14 6 0 18 8 28 18 25 25 110 75
152 89 47 15 129 16 159 0z m-807 -293 c171 -22 394 -90 480 -146 14 -9 40
-24 59 -32 19 -9 43 -22 54 -29 44 -27 110 -73 127 -87 9 -8 33 -28 54 -45 53
-43 131 -117 119 -113 -5 2 -62 29 -126 60 -244 119 -470 185 -784 229 -171
25 -648 35 -790 18 -89 -11 -107 -9 -73 8 188 94 431 149 665 152 50 0 147 -6
215 -15z m-277 -204 c50 -5 122 -12 160 -15 204 -19 466 -77 647 -143 43 -15
83 -33 90 -40 7 -7 18 -12 26 -12 7 0 47 -16 89 -36 55 -27 72 -39 62 -46 -10
-6 -7 -7 10 -3 17 5 22 4 16 -5 -5 -9 -4 -11 3 -6 12 7 108 -50 148 -89 12
-11 36 -31 53 -45 55 -44 43 -45 -79 -8 -88 26 -343 76 -462 90 -54 6 -98 15
-98 20 0 6 -7 7 -16 4 -9 -4 -44 -1 -78 5 -33 6 -113 17 -176 24 -105 11 -109
13 -49 14 72 1 95 15 84 49 -3 11 -15 22 -27 26 -12 3 -19 8 -16 12 4 3 3 16
-2 29 -7 17 -5 25 6 29 18 7 18 25 -2 64 -18 37 -38 41 -54 12 -6 -11 -15 -20
-19 -20 -14 0 -20 38 -7 44 6 3 0 3 -14 0 -31 -8 -38 -18 -46 -71 -7 -45 1
-67 19 -57 7 4 9 3 4 -1 -4 -5 0 -17 10 -27 15 -17 15 -18 -4 -18 -42 0 -54
-53 -15 -63 35 -10 -55 -6 -96 3 -51 12 -71 28 -64 52 3 12 14 18 34 18 29 0
30 -2 24 -32 -3 -17 -3 -29 0 -25 4 3 15 2 25 -3 33 -18 45 17 39 117 -6 102
-18 124 -72 122 -64 -2 -82 -12 -95 -54 -6 -22 -12 -55 -12 -72 -1 -18 -5 -33
-10 -33 -11 0 -2 -51 13 -69 9 -12 7 -13 -14 -8 -14 4 -112 7 -218 7 l-193 0
34 29 c28 25 44 30 93 33 56 3 59 4 62 31 2 15 7 25 12 22 4 -3 13 2 20 10 10
13 9 19 -5 35 -10 11 -24 20 -31 20 -8 0 -11 6 -7 16 5 15 1 16 -31 10 -36 -7
-37 -6 -32 16 3 13 3 18 0 11 -3 -7 -12 -9 -21 -6 -8 3 -18 0 -22 -6 -11 -17
-1 -62 12 -54 6 3 7 1 3 -5 -11 -18 -26 -14 -26 7 0 35 -29 33 -51 -4 -24 -41
-32 -44 -24 -12 7 26 -14 50 -31 39 -16 -10 -44 -68 -44 -90 0 -10 8 -26 18
-35 17 -15 19 -15 36 13 9 17 21 30 25 30 19 0 18 -29 -1 -50 -11 -12 -18 -29
-15 -39 4 -17 -9 -19 -177 -24 -108 -3 -235 -14 -315 -27 -74 -11 -138 -19
-142 -18 -5 2 4 18 20 35 15 18 32 29 36 25 5 -4 5 -1 1 5 -9 17 100 126 117
117 7 -4 9 -3 4 1 -9 10 31 55 49 55 6 0 14 6 17 13 8 21 77 36 237 51 174 16
431 19 555 6z m155 -84 c0 -2 -11 -6 -25 -8 -14 -3 -25 -1 -25 3 0 5 11 9 25
9 14 0 25 -2 25 -4z m-363 -12 c-3 -4 -2 -14 3 -23 7 -14 4 -17 -16 -17 -13 0
-24 2 -24 5 0 6 32 41 38 41 3 0 2 -3 -1 -6z m373 -57 c0 -9 -10 -12 -30 -9
-16 2 -30 8 -30 13 0 5 14 9 30 9 18 0 30 -5 30 -13z m145 3 c3 -5 2 -10 -4
-10 -5 0 -13 5 -16 10 -3 6 -2 10 4 10 5 0 13 -4 16 -10z m68 -55 c-3 -9 -8
-14 -10 -11 -3 3 -2 9 2 15 9 16 15 13 8 -4z m-177 -148 c126 -14 259 -31 295
-36 35 -6 118 -17 184 -26 66 -8 165 -24 220 -35 55 -10 123 -23 150 -28 73
-14 232 -57 295 -80 36 -13 61 -30 72 -48 25 -40 75 -207 87 -289 22 -148 23
-183 6 -301 -53 -376 -278 -647 -634 -764 -47 -15 -98 -31 -113 -34 -19 -4
-28 -13 -28 -26 0 -16 7 -20 34 -20 22 0 46 -10 71 -30 42 -34 145 -141 145
-152 0 -4 13 -28 29 -55 39 -64 65 -172 56 -232 -18 -118 -110 -201 -223 -201
-45 0 -57 4 -78 27 -13 14 -27 38 -31 52 -9 35 32 108 77 136 53 33 65 51 49
71 -8 9 -21 13 -35 10 -20 -5 -24 -1 -34 36 -13 56 -42 112 -55 107 -12 -5 -9
-108 4 -155 8 -28 5 -37 -22 -70 -27 -32 -32 -47 -35 -106 -4 -62 -2 -73 23
-108 15 -22 35 -42 45 -45 22 -7 30 -84 30 -305 0 -277 -26 -377 -106 -421
-53 -28 -108 -29 -154 -3 -36 21 -100 139 -100 185 l0 26 -197 6 c-195 6 -231
10 -346 44 -43 12 -61 13 -69 5 -8 -8 -8 -15 -1 -24 16 -20 22 -108 11 -160
-13 -62 -47 -88 -115 -88 -79 0 -141 48 -183 142 -74 168 -88 637 -29 980 18
106 21 140 12 149 -17 17 -43 -6 -43 -37 0 -13 -5 -24 -11 -24 -10 0 -97 46
-159 85 -51 32 -150 125 -150 140 0 9 18 15 53 18 60 5 141 38 210 86 27 18
50 31 51 29 1 -1 25 -32 52 -68 27 -35 54 -70 59 -78 15 -19 45 -4 45 22 0 11
-9 32 -20 46 -11 14 -36 45 -54 70 l-35 44 44 47 c23 25 50 60 59 77 39 76 28
177 -25 234 -17 18 -46 64 -64 102 l-34 69 20 25 c19 25 25 89 11 125 -15 36
-105 117 -143 127 -40 11 -121 -1 -127 -18 -1 -5 -22 -7 -45 -5 -47 5 -149
-21 -242 -61 -67 -30 -82 -37 -173 -86 -51 -27 -65 -31 -72 -20 -14 22 -23
211 -15 312 12 153 72 348 161 516 15 29 35 57 43 61 9 5 95 17 191 26 96 10
204 21 240 25 36 5 193 7 350 5 225 -2 334 -8 516 -28z m1734 -101 c49 -8 80
-19 80 -26 0 -4 8 -6 18 -3 26 6 90 -62 103 -111 11 -40 1 -123 -19 -152 -10
-15 -57 -30 -48 -15 4 6 1 9 -7 5 -8 -3 -38 4 -68 15 -30 12 -62 21 -71 21
-10 0 -39 11 -65 24 -27 14 -67 32 -90 42 -23 9 -40 21 -36 27 3 6 1 7 -4 4
-19 -12 -73 14 -73 34 0 17 5 18 43 13 23 -4 61 -15 84 -27 51 -24 76 -18 71
19 -5 45 -46 66 -139 73 -71 5 -83 9 -89 27 -5 13 -4 21 3 23 101 17 234 20
307 7z m-383 -59 c26 -38 40 -87 25 -87 -6 0 -17 -3 -25 -6 -21 -8 -30 25 -11
43 21 22 14 46 -18 57 -23 8 -31 6 -45 -11 l-19 -21 -11 24 c-12 27 -7 30 47
32 29 1 39 -4 57 -31z m109 -191 c44 -41 94 -108 88 -117 -3 -5 -2 -9 3 -8 19
3 33 -2 33 -12 0 -6 14 -27 30 -46 17 -19 27 -39 24 -45 -5 -7 -2 -8 6 -3 10
6 12 4 7 -9 -4 -9 -3 -15 2 -12 10 7 34 -20 37 -41 2 -8 9 -22 18 -32 31 -34
35 -64 13 -101 -26 -44 -78 -96 -106 -105 -12 -3 -21 -10 -21 -15 0 -5 -19
-14 -42 -21 -40 -10 -43 -10 -64 17 -29 36 -87 187 -90 233 -1 20 -3 36 -5 36
-1 0 -3 9 -4 20 -2 11 -11 52 -20 90 -9 39 -18 82 -19 96 -2 14 -6 31 -10 37
-4 7 -3 12 3 12 9 0 61 -95 61 -114 1 -6 11 -24 24 -40 18 -21 29 -26 45 -21
12 3 21 15 21 26 0 21 -50 127 -81 171 -11 14 -19 29 -19 33 0 12 43 -7 66
-29z m-2257 -472 c35 -33 45 -50 47 -79 3 -31 1 -35 -11 -25 -8 6 -17 20 -20
30 -3 10 -15 20 -27 23 -12 4 -18 11 -15 20 3 7 -1 14 -8 14 -8 0 -30 11 -49
24 -29 20 -32 25 -18 30 33 13 57 4 101 -37z m-186 6 c7 -5 37 -30 67 -54 80
-63 180 -196 180 -239 0 -7 22 -42 50 -75 80 -101 77 -166 -14 -256 -78 -78
-157 -131 -244 -165 -69 -28 -107 -26 -165 5 -38 20 -51 23 -63 13 -18 -15
-18 -24 2 -44 9 -9 15 -17 13 -19 -69 -58 -281 -173 -336 -182 -73 -11 -149
38 -283 185 -49 54 -109 174 -120 241 -14 79 1 123 62 181 28 27 54 49 59 49
4 0 36 18 70 39 127 79 266 157 374 210 61 30 119 59 130 65 27 14 166 55 188
55 10 1 23 -3 30 -9z m-409 -1329 c6 -10 -52 -21 -104 -20 l-35 1 35 13 c40
16 96 19 104 6z m56 -101 c-17 -11 -141 -29 -175 -26 -16 2 -36 4 -42 5 -7 0
-13 9 -13 19 0 15 12 17 105 17 57 -1 99 2 93 6 -7 4 -1 9 13 11 26 3 40 -19
19 -32z m252 -27 c25 -17 39 -35 43 -56 13 -65 12 -64 74 -69 115 -8 153 -69
172 -281 12 -122 11 -129 -8 -154 -32 -43 -65 -62 -122 -70 l-55 -8 -3 -45
c-4 -70 -11 -87 -42 -109 -54 -39 -143 -54 -321 -55 -197 -1 -231 7 -260 64
-26 52 -37 103 -50 250 -22 232 -10 434 29 481 15 19 17 19 50 3 27 -14 51
-16 127 -11 107 6 162 27 182 70 13 27 14 27 80 21 47 -4 78 -14 104 -31z
m2118 7 c0 -5 -17 -11 -37 -12 -21 0 -50 -2 -65 -2 -28 -2 -34 4 -21 17 10 11
123 8 123 -3z m230 -59 c19 -9 45 -32 58 -51 22 -33 27 -35 78 -36 87 -1 132
-45 160 -154 17 -67 15 -141 -5 -211 -12 -39 -34 -53 -98 -65 -51 -9 -63 -20
-63 -59 0 -67 -12 -96 -49 -121 -51 -33 -183 -57 -326 -58 -153 -1 -218 17
-255 71 l-25 36 0 281 c0 277 0 281 21 291 12 6 28 16 36 23 11 9 18 7 30 -8
21 -23 89 -34 177 -28 84 6 125 28 151 78 18 36 24 40 48 34 15 -3 43 -14 62
-23z m-364 -19 c-10 -2 -22 0 -28 6 -6 6 0 7 19 4 21 -5 23 -7 9 -10z m77 -9
c-7 -2 -19 -2 -25 0 -7 3 -2 5 12 5 14 0 19 -2 13 -5z"/>
<path d="M1838 3783 c7 -3 16 -2 19 1 4 3 -2 6 -13 5 -11 0 -14 -3 -6 -6z"/>
<path d="M1838 3763 c7 -3 16 -2 19 1 4 3 -2 6 -13 5 -11 0 -14 -3 -6 -6z"/>
<path d="M2426 3665 c4 -8 8 -15 10 -15 2 0 4 7 4 15 0 8 -4 15 -10 15 -5 0
-7 -7 -4 -15z"/>
<path d="M2401 3654 c0 -11 3 -14 6 -6 3 7 2 16 -1 19 -3 4 -6 -2 -5 -13z"/>
<path d="M2333 3583 c9 -2 25 -2 35 0 9 3 1 5 -18 5 -19 0 -27 -2 -17 -5z"/>
<path d="M1840 3241 c0 -23 119 -131 144 -131 24 0 30 25 13 50 -21 31 -118
100 -139 100 -11 0 -18 -7 -18 -19z"/>
<path d="M2765 3179 c-67 -46 -83 -65 -66 -82 13 -13 91 23 146 67 25 20 28
26 16 40 -19 23 -29 20 -96 -25z"/>
<path d="M1845 3038 c-64 -35 -86 -88 -65 -152 16 -50 57 -76 118 -76 57 0
103 30 120 78 32 94 -87 198 -173 150z"/>
<path d="M2764 3001 c-57 -25 -80 -101 -49 -161 36 -69 153 -81 207 -21 39 44
39 104 0 150 -25 30 -35 34 -83 37 -30 2 -64 0 -75 -5z"/>
<path d="M2153 2988 c-6 -7 -16 -29 -23 -49 -26 -72 27 -139 109 -139 36 0 52
6 75 27 19 18 31 23 34 15 6 -18 56 -42 87 -42 l27 0 -7 -99 c-9 -122 -4 -146
36 -167 30 -15 33 -15 58 4 32 24 40 86 17 146 -35 96 -38 122 -16 158 11 18
20 44 20 58 0 33 -35 90 -55 90 -14 0 -15 -9 -9 -59 6 -53 4 -60 -14 -70 -53
-28 -114 3 -133 70 -10 32 -17 39 -33 37 -17 -2 -22 -11 -24 -46 -4 -52 -34
-77 -82 -67 -35 8 -46 36 -36 90 4 19 7 38 7 42 0 14 -28 14 -38 1z m396 -375
c2 -52 -40 -76 -55 -30 -9 25 -6 146 3 161 8 11 52 -99 52 -131z"/>
<path d="M2415 1190 c-80 -20 -113 -37 -121 -63 -8 -27 -1 -29 37 -13 64 27
199 49 259 43 120 -13 254 -63 300 -112 27 -28 70 -34 70 -9 0 45 -138 126
-265 155 -98 23 -188 22 -280 -1z"/>
<path d="M4588 3318 c5 -5 16 -8 23 -6 8 3 3 7 -10 11 -17 4 -21 3 -13 -5z"/>
<path d="M4468 3153 c7 -3 16 -2 19 1 4 3 -2 6 -13 5 -11 0 -14 -3 -6 -6z"/>
<path d="M4181 2894 c0 -11 3 -14 6 -6 3 7 2 16 -1 19 -3 4 -6 -2 -5 -13z"/>
<path d="M4460 2785 c0 -5 5 -17 10 -25 5 -8 10 -10 10 -5 0 6 -5 17 -10 25
-5 8 -10 11 -10 5z"/>
<path d="M1960 2656 c0 -2 8 -10 18 -17 15 -13 16 -12 3 4 -13 16 -21 21 -21
13z"/>
<path d="M1474 2485 c-18 -28 -12 -45 17 -45 20 0 44 44 33 61 -10 17 -33 9
-50 -16z"/>
<path d="M1406 2487 c-24 -18 -18 -62 9 -62 15 0 21 8 23 29 4 36 -9 50 -32
33z"/>
<path d="M1320 2418 c0 -34 14 -50 40 -46 32 4 36 22 11 47 -28 28 -51 27 -51
-1z"/>
<path d="M1412 2367 c-42 -45 -21 -154 41 -205 20 -17 88 -18 115 -1 35 22 56
71 49 118 -5 38 -2 44 24 63 16 12 29 25 29 30 0 13 -34 9 -55 -6 -16 -12 -23
-11 -52 5 -49 28 -123 26 -151 -4z m121 -34 c9 -8 -12 -33 -29 -33 -7 0 -18 9
-24 20 -10 18 -8 20 18 20 16 0 32 -3 35 -7z m-73 -59 c0 -8 -4 -14 -10 -14
-5 0 -10 9 -10 21 0 11 5 17 10 14 6 -3 10 -13 10 -21z m110 -12 c0 -26 -11
-34 -27 -21 -10 9 -10 15 -2 25 16 19 29 17 29 -4z m-70 -47 c10 -12 10 -15
-4 -15 -9 0 -16 7 -16 15 0 8 2 15 4 15 2 0 9 -7 16 -15z"/>
<path d="M1833 2303 c-71 -23 -143 -64 -175 -100 -29 -33 -43 -98 -29 -142 12
-43 57 -87 98 -98 60 -14 241 82 290 156 38 56 27 150 -22 191 -25 21 -85 19
-162 -7z m131 -55 c24 -34 20 -74 -11 -108 l-28 -30 -41 20 c-45 23 -100 28
-159 16 l-40 -8 25 27 c28 30 83 62 150 86 63 23 86 22 104 -3z m-110 -167 c8
-12 -24 -36 -65 -48 -27 -8 -44 -7 -68 3 -33 14 -38 23 -19 42 14 14 144 17
152 3z"/>
<path d="M958 2160 c-36 -36 -40 -44 -35 -76 6 -38 41 -73 72 -73 25 0 65 32
65 53 0 19 -23 21 -52 5 -16 -9 -23 -8 -29 2 -14 22 -11 26 31 70 47 49 49 59
14 59 -17 0 -40 -14 -66 -40z"/>
<path d="M1155 1980 c-72 -33 -109 -115 -67 -153 32 -29 83 -32 115 -7 32 25
37 60 7 60 -10 0 -23 -7 -28 -16 -12 -21 -56 -14 -60 9 -2 11 12 33 38 56 24
22 40 44 36 50 -8 13 -14 13 -41 1z"/>
<path d="M1241 1764 c-35 -29 -40 -63 -13 -87 36 -33 102 -17 102 25 0 20 -12
23 -40 8 -35 -19 -36 12 -2 40 18 15 32 30 32 33 0 17 -51 5 -79 -19z"/>
<path d="M1398 998 c-2 -24 -12 -38 -35 -53 -17 -11 -39 -37 -49 -57 -16 -36
-16 -40 0 -75 30 -66 130 -95 194 -58 28 17 52 63 52 101 0 33 -37 82 -80 106
-22 13 -43 33 -46 46 -9 33 -32 27 -36 -10z m12 -102 c0 -17 -7 -26 -26 -30
-35 -9 -38 -4 -13 27 25 33 39 34 39 3z m68 12 c16 -16 15 -28 -3 -28 -8 0
-15 2 -15 4 0 2 -3 11 -6 20 -7 19 7 21 24 4z m22 -93 c-16 -19 -30 -19 -30 0
0 17 33 38 38 24 2 -5 -2 -16 -8 -24z m-80 -5 c0 -11 -6 -20 -13 -20 -8 0 -22
9 -32 20 -18 20 -17 20 13 20 25 0 32 -4 32 -20z"/>
<path d="M1820 987 c-25 -12 -25 -14 -25 -137 0 -113 2 -130 24 -172 22 -42
28 -48 57 -48 66 0 108 111 85 225 -17 81 -36 114 -76 131 -41 17 -34 17 -65
1z m72 -87 c28 -57 19 -210 -12 -210 -17 0 -33 64 -38 153 -4 93 -4 99 14 95
10 -2 27 -19 36 -38z"/>
<path d="M1232 923 c4 -21 33 -25 33 -3 0 8 -8 16 -18 18 -14 3 -18 -1 -15
-15z"/>
<path d="M1220 851 c0 -21 21 -33 39 -22 17 11 2 41 -20 41 -12 0 -19 -7 -19
-19z"/>
<path d="M1221 786 c-8 -10 -8 -16 2 -25 17 -13 54 10 43 27 -10 16 -31 15
-45 -2z"/>
<path d="M1444 606 c-3 -9 -4 -49 -2 -90 4 -87 22 -116 72 -116 51 1 68 21 64
76 -2 37 -7 50 -20 52 -15 3 -18 -4 -18 -38 0 -28 -5 -43 -16 -47 -26 -10 -38
14 -44 94 -5 74 -22 106 -36 69z"/>
<path d="M1186 572 c-9 -61 8 -133 38 -159 42 -36 86 -12 86 48 0 33 -14 59
-25 47 -4 -4 -12 -39 -14 -60 -1 -7 -30 -12 -32 -5 0 1 -6 38 -12 81 -13 88
-31 108 -41 48z"/>
<path d="M4193 989 c-48 -14 -66 -62 -61 -165 6 -122 41 -168 113 -150 50 13
79 174 46 256 -17 41 -40 70 -55 69 -6 0 -26 -5 -43 -10z m48 -81 c13 -48 7
-135 -11 -169 l-12 -22 -14 24 c-14 24 -19 163 -8 193 11 29 33 16 45 -26z"/>
<path d="M3768 943 c-2 -30 -9 -41 -30 -51 -106 -50 -81 -190 37 -209 46 -7
77 2 114 33 27 22 31 32 31 75 0 42 -5 54 -27 75 -16 15 -40 32 -55 40 -21 11
-28 22 -28 44 0 23 -5 30 -19 30 -16 0 -20 -8 -23 -37z m0 -128 c-2 -1 -13 -6
-25 -9 -17 -5 -23 -3 -23 8 0 8 10 22 23 31 21 15 22 14 25 -6 2 -11 2 -22 0
-24z m82 20 c10 -13 9 -15 -9 -15 -12 0 -21 6 -21 15 0 8 4 15 9 15 5 0 14 -7
21 -15z m-70 -69 c0 -2 3 -11 6 -20 8 -22 -9 -20 -37 4 l-24 19 28 1 c15 0 27
-2 27 -4z m78 -7 c-2 -6 -8 -10 -13 -10 -5 0 -11 4 -13 10 -2 6 4 11 13 11 9
0 15 -5 13 -11z"/>
<path d="M3612 893 c2 -20 9 -28 22 -28 26 0 31 19 11 39 -24 24 -37 19 -33
-11z"/>
<path d="M3604 789 c-3 -6 1 -18 9 -27 13 -12 19 -13 31 -3 8 7 12 19 9 27 -6
17 -39 19 -49 3z"/>
<path d="M3613 714 c-3 -8 -1 -20 4 -25 14 -14 43 0 43 22 0 24 -38 26 -47 3z"/>
<path d="M3600 564 c0 -66 11 -90 45 -98 42 -11 67 9 63 52 -4 44 -31 52 -36
10 -2 -19 -8 -25 -18 -21 -10 3 -14 21 -14 59 0 47 -2 54 -20 54 -18 0 -20 -7
-20 -56z"/>
<path d="M3844 605 c-10 -24 6 -108 23 -127 16 -18 57 -23 87 -12 22 8 22 87
0 105 -20 16 -34 -2 -34 -45 0 -47 -28 -12 -36 45 -7 49 -28 67 -40 34z"/>
<path d="M340 4745 c-5 -14 -7 -45 -4 -68 6 -40 4 -45 -30 -75 -38 -33 -57
-84 -36 -97 7 -4 23 4 39 19 15 14 30 26 33 26 3 0 11 -44 18 -97 15 -119 31
-163 59 -163 37 0 43 31 22 122 -11 46 -22 104 -25 129 -5 44 -4 47 21 52 33
6 87 -9 104 -29 19 -23 16 -72 -8 -123 -26 -55 -20 -83 15 -79 51 6 95 117 77
197 -14 64 -100 113 -190 108 -25 -2 -30 2 -33 23 -9 72 -44 103 -62 55z"/>
<path d="M1143 4705 c-8 -22 25 -55 54 -55 34 0 41 29 14 52 -28 22 -60 23
-68 3z"/>
<path d="M718 4644 c-61 -44 -64 -140 -6 -189 59 -50 163 -22 195 52 13 33 13
40 -1 70 -19 40 -90 93 -125 93 -14 0 -43 -12 -63 -26z m86 -64 c32 -12 36
-54 6 -70 -35 -19 -83 21 -73 61 6 21 29 24 67 9z"/>
<path d="M1178 4579 c-62 -32 -47 -66 23 -54 43 7 79 35 79 60 0 22 -57 19
-102 -6z"/>
<path d="M1153 3870 c-45 -27 -35 -50 21 -50 32 0 48 6 65 24 23 24 23 24 3
35 -30 16 -53 14 -89 -9z"/>
<path d="M737 3848 c-8 -13 -38 -78 -68 -146 -43 -98 -59 -123 -78 -129 -32
-8 -47 13 -54 77 -7 60 -12 70 -36 70 -22 0 -31 -26 -31 -88 0 -66 22 -108 64
-122 20 -6 36 -16 36 -22 0 -5 -11 -33 -25 -61 -29 -56 -29 -94 -2 -111 24
-15 47 16 83 109 15 38 30 73 33 78 4 4 34 14 67 23 77 20 106 39 102 67 -2
18 -10 22 -38 22 -19 0 -47 -4 -62 -8 l-26 -7 25 68 c52 140 62 202 34 202 -6
0 -17 -10 -24 -22z"/>
<path d="M584 3825 c-9 -21 1 -41 29 -60 53 -34 79 18 28 54 -35 25 -50 26
-57 6z"/>
<path d="M795 3749 c-9 -14 34 -59 57 -59 24 0 33 23 18 49 -12 23 -64 30 -75
10z"/>
<path d="M395 3691 c-3 -6 -10 -35 -16 -65 -11 -62 -1 -96 30 -96 23 0 31 19
31 75 0 69 -25 117 -45 86z"/>
</g>
</svg>
